<svg xmlns="http://www.w3.org/2000/svg" version="1.1" xmlns:xlink="http://www.w3.org/1999/xlink" xmlns:svgjs="http://svgjs.dev/svgjs" viewBox="0 0 800 800" opacity="0.1"><defs><filter id="bbburst-blur-1" x="-100%" y="-100%" width="400%" height="400%"><feGaussianBlur in="SourceGraphic" stdDeviation="1"></feGaussianBlur></filter><filter id="bbburst-blur-2" x="-100%" y="-100%" width="400%" height="400%"><feGaussianBlur in="SourceGraphic" stdDeviation="2"></feGaussianBlur></filter><filter id="bbburst-blur-3" x="-100%" y="-100%" width="400%" height="400%"><feGaussianBlur in="SourceGraphic" stdDeviation="4"></feGaussianBlur></filter><filter id="bbburst-blur-4" x="-100%" y="-100%" width="400%" height="400%"><feGaussianBlur in="SourceGraphic" stdDeviation="12"></feGaussianBlur></filter><symbol id="bbburst-shape-9" viewBox="0 0 182 172"><path d="M13.5809 69.845 91 13.5967l77.419 56.2483-29.571 91.012H43.1524L13.5809 69.845Z" stroke-width="22"></path></symbol><symbol id="bbburst-shape-10" viewBox="0 0 145 145"><circle cx="72.5" cy="72.5" r="61.5" fill="none" stroke-width="22"></circle></symbol><symbol id="bbburst-shape-13" viewBox="0 0 159 159"><path stroke-width="22" d="M11 11h137v137H11z"></path></symbol></defs><use xlink:href="#bbburst-shape-10" width="30.348858735343306" opacity="0.5351614030692253" transform="matrix(0.9638673858795678,0.26638254904871,-0.26638254904871,0.9638673858795678,685.1814593259547,-69.63809909551708)" fill="none" stroke="#ffa6d5" filter="url(#bbburst-blur-2)"></use><use xlink:href="#bbburst-shape-10" width="52.380234395327065" opacity="-0.03771653832589483" transform="matrix(1.4597120847992187,-0.9652671285665532,0.9652671285665532,1.4597120847992187,-353.22675080502165,172.89930084870082)" fill="none" stroke="#ffbd9b" filter="url(#bbburst-blur-4)"></use><use xlink:href="#bbburst-shape-9" width="51.756159989008175" opacity="0.3460606573381081" transform="matrix(0.8993276146642508,0.437275475532654,-0.437275475532654,0.8993276146642508,743.1722643973044,252.17726133079321)" fill="none" stroke="#ffbd9b" filter="url(#bbburst-blur-2)"></use><use xlink:href="#bbburst-shape-13" width="44.17921639705294" opacity="0.2032610233888461" transform="matrix(1.0605655575184143,-0.6615895239539809,0.6615895239539809,1.0605655575184143,466.696323367006,42.26487417991291)" fill="none" stroke="#ffa6d5" filter="url(#bbburst-blur-3)"></use><use xlink:href="#bbburst-shape-13" width="35.266582838523696" opacity="0.19327900754396332" transform="matrix(1.2476482535224451,-0.07664095173203499,0.07664095173203499,1.2476482535224451,85.9458292758408,-349.6166350304274)" fill="none" stroke="#2c2891" filter="url(#bbburst-blur-3)"></use><use xlink:href="#bbburst-shape-10" width="33.19869539238326" opacity="0.7567940380417928" transform="matrix(0.9964079106292766,-0.08468338464775496,0.08468338464775496,0.9964079106292766,450.7877146459888,44.50906487402426)" fill="none" stroke="#ff5c58" filter="url(#bbburst-blur-1)"></use><use xlink:href="#bbburst-shape-9" width="37.317320530135234" opacity="0.575018572771" transform="matrix(0.989563736007687,0.14409584441790396,-0.14409584441790396,0.989563736007687,405.419084083379,189.46949572793648)" fill="none" stroke="#ffa6d5" filter="url(#bbburst-blur-1)"></use><use xlink:href="#bbburst-shape-10" width="49.41036535589411" opacity="-0.054237311750004125" transform="matrix(1.5480306282000136,0.8161502154350456,-0.8161502154350456,1.5480306282000136,351.0580906162146,-573.1216615156515)" fill="none" stroke="#2c2891" filter="url(#bbburst-blur-4)"></use><use xlink:href="#bbburst-shape-9" width="42.23811738985308" opacity="0.3259413936585469" transform="matrix(1.1805814363185394,-0.4107644972731386,0.4107644972731386,1.1805814363185394,-81.25435614894846,-146.36767841127272)" fill="none" stroke="#00a19d" filter="url(#bbburst-blur-3)"></use><use xlink:href="#bbburst-shape-10" width="52.03387636448529" opacity="0.30043727259286257" transform="matrix(1.246686045784444,0.09096099849027066,-0.09096099849027066,1.246686045784444,150.3674608581648,85.49928264520832)" fill="none" stroke="#00a19d" filter="url(#bbburst-blur-3)"></use><use xlink:href="#bbburst-shape-10" width="35.37912379288405" opacity="0.20264583600157915" transform="matrix(1.196940544922783,-0.3603239263772959,0.3603239263772959,1.196940544922783,244.18654407129736,-431.08611763801656)" fill="none" stroke="#ffa6d5" filter="url(#bbburst-blur-3)"></use><use xlink:href="#bbburst-shape-10" width="41.96520946761194" opacity="0.4132283282451451" transform="matrix(0.9703795175507409,0.24158557887007914,-0.24158557887007914,0.9703795175507409,284.00776561225234,-174.20425447912965)" fill="none" stroke="#ffa6d5" filter="url(#bbburst-blur-2)"></use><use xlink:href="#bbburst-shape-10" width="31.329323112621815" opacity="0.8562934753676861" transform="matrix(0.9207074968114545,0.3902533860393598,-0.3902533860393598,0.9207074968114545,488.34805882906073,62.17942091629402)" fill="none" stroke="#ff5c58"></use><use xlink:href="#bbburst-shape-10" width="38.48453317168968" opacity="0.7298913445145552" transform="matrix(0.809922061515685,0.5865375130971444,-0.5865375130971444,0.809922061515685,735.3495369105835,29.47498862188604)" fill="none" stroke="#2c2891" filter="url(#bbburst-blur-1)"></use><use xlink:href="#bbburst-shape-10" width="36.931740839844316" opacity="0.6949892687767244" transform="matrix(0.9924496617010852,-0.12265263547678665,0.12265263547678665,0.9924496617010852,195.41783435834702,9.347856800621116)" fill="none" stroke="#ffbd9b" filter="url(#bbburst-blur-1)"></use><use xlink:href="#bbburst-shape-10" width="34.066810590801296" opacity="0.645528822134412" transform="matrix(0.7552859230675172,0.6553954336246541,-0.6553954336246541,0.7552859230675172,753.1516144979416,-34.34611893911551)" fill="none" stroke="#00a19d" filter="url(#bbburst-blur-1)"></use><use xlink:href="#bbburst-shape-10" width="46.840020134196465" opacity="0.5699659717593668" transform="matrix(0.9623000222635363,-0.2719901967931889,0.2719901967931889,0.9623000222635363,91.64222423516571,-56.719407689035506)" fill="none" stroke="#2c2891" filter="url(#bbburst-blur-1)"></use><use xlink:href="#bbburst-shape-9" width="35.85510071781244" opacity="0.42801395817124066" transform="matrix(0.902336556296795,-0.43103217881086425,0.43103217881086425,0.902336556296795,276.70343780932,295.521888362807)" fill="none" stroke="#ff5c58" filter="url(#bbburst-blur-2)"></use><use xlink:href="#bbburst-shape-9" width="36.73261839556272" opacity="0.6194049167521174" transform="matrix(0.8286947706967508,0.55970079240596,-0.55970079240596,0.8286947706967508,629.8456382940014,-111.93239191207564)" fill="none" stroke="#ffbd9b" filter="url(#bbburst-blur-1)"></use><use xlink:href="#bbburst-shape-9" width="35.84725862589281" opacity="0.9310086936676332" transform="matrix(0.7105501927004105,-0.7036465189663127,0.7036465189663127,0.7105501927004105,134.11400330477858,115.85702312578582)" fill="none" stroke="#00a19d"></use><use xlink:href="#bbburst-shape-9" width="37.75190084207592" opacity="0.36926699009825725" transform="matrix(0.9763855556892435,-0.2160352902685281,0.2160352902685281,0.9763855556892435,554.1895011761201,129.17333464468976)" fill="none" stroke="#2c2891" filter="url(#bbburst-blur-2)"></use><use xlink:href="#bbburst-shape-10" width="30.511773182416455" opacity="0.7486739081235338" transform="matrix(0.7707612233775328,-0.6371241139193908,0.6371241139193908,0.7707612233775328,115.57270571691419,213.09959479483143)" fill="none" stroke="#ff5c58" filter="url(#bbburst-blur-1)"></use><use xlink:href="#bbburst-shape-13" width="32.30821492915081" opacity="0.35461959708559887" transform="matrix(0.9062822054949138,0.4226731171996569,-0.4226731171996569,0.9062822054949138,803.8896825152766,-118.04810634923578)" fill="none" stroke="#ff5c58" filter="url(#bbburst-blur-2)"></use><use xlink:href="#bbburst-shape-10" width="31.244233550189943" opacity="0.4525259638942567" transform="matrix(0.894343734448434,-0.44738046968193534,0.44738046968193534,0.894343734448434,351.30763612428905,-150.47879193348138)" fill="none" stroke="#00a19d" filter="url(#bbburst-blur-2)"></use><use xlink:href="#bbburst-shape-13" width="38.979799565325" opacity="0.6560582562889723" transform="matrix(0.7162699756688458,0.6978232741571114,-0.6978232741571114,0.7162699756688458,560.1123765335492,213.54875869324184)" fill="none" stroke="#ffa6d5" filter="url(#bbburst-blur-1)"></use><use xlink:href="#bbburst-shape-13" width="34.94492837756042" opacity="0.7992855961447851" transform="matrix(0.7286301022559205,-0.6849074200842964,0.6849074200842964,0.7286301022559205,138.37926337840122,33.743399048702145)" fill="none" stroke="#00a19d"></use><use xlink:href="#bbburst-shape-13" width="33.320888885431636" opacity="0.6248753833037763" transform="matrix(0.9912015854717473,-0.1323609344115345,0.1323609344115345,0.9912015854717473,402.8045239162921,158.28138415158378)" fill="none" stroke="#00a19d" filter="url(#bbburst-blur-1)"></use><use xlink:href="#bbburst-shape-10" width="38.03479934299891" opacity="0.31482557041761905" transform="matrix(1.2213641594170723,0.26602554405813794,-0.26602554405813794,1.2213641594170723,381.60647460797486,-384.7210089641502)" fill="none" stroke="#ffbd9b" filter="url(#bbburst-blur-3)"></use><use xlink:href="#bbburst-shape-9" width="45.70502584697649" opacity="-0.05892994680201458" transform="matrix(1.7439984219185465,0.14480850923070582,-0.14480850923070582,1.7439984219185465,760.2475371326659,30.237717080118728)" fill="none" stroke="#ff5c58" filter="url(#bbburst-blur-4)"></use><use xlink:href="#bbburst-shape-10" width="38.91509099882019" opacity="0.11686702804398108" transform="matrix(1.2499036752867847,0.015517812493647793,-0.015517812493647793,1.2499036752867847,200.6013136828991,-453.9158608085038)" fill="none" stroke="#00a19d" filter="url(#bbburst-blur-3)"></use><use xlink:href="#bbburst-shape-13" width="35.64707166346825" opacity="0.5247131815727606" transform="matrix(0.7774532026510266,-0.6289407902876564,0.6289407902876564,0.7774532026510266,-55.80805273296875,197.70537008411316)" fill="none" stroke="#ff5c58" filter="url(#bbburst-blur-2)"></use><use xlink:href="#bbburst-shape-13" width="36.304416351979924" opacity="0.37618096265681467" transform="matrix(0.9074556966100068,-0.4201477819649263,0.4201477819649263,0.9074556966100068,160.28782391009648,319.88603909133786)" fill="none" stroke="#ffa6d5" filter="url(#bbburst-blur-2)"></use><use xlink:href="#bbburst-shape-10" width="50.0776635407135" opacity="0.2003855383760924" transform="matrix(1.1889583794550476,0.3858470836012978,-0.3858470836012978,1.1889583794550476,621.8392339499292,261.1852083441188)" fill="none" stroke="#00a19d" filter="url(#bbburst-blur-3)"></use><use xlink:href="#bbburst-shape-9" width="45.98627623830771" opacity="0.21252280632788967" transform="matrix(1.2323795180795638,0.20914283018545532,-0.20914283018545532,1.2323795180795638,102.97468551576449,-60.982928155372406)" fill="none" stroke="#ff5c58" filter="url(#bbburst-blur-3)"></use><use xlink:href="#bbburst-shape-10" width="36.61412689636177" opacity="0.2815622686525131" transform="matrix(1.1696707559001682,-0.4408744977790496,0.4408744977790496,1.1696707559001682,321.2608361230381,-360.3870415942765)" fill="none" stroke="#2c2891" filter="url(#bbburst-blur-3)"></use><use xlink:href="#bbburst-shape-13" width="38.58426546110188" opacity="0.13030397571252994" transform="matrix(0.9979868367084821,-0.7526767392158452,0.7526767392158452,0.9979868367084821,-274.76461108602166,-150.61680936065522)" fill="none" stroke="#00a19d" filter="url(#bbburst-blur-3)"></use><use xlink:href="#bbburst-shape-10" width="32.596150018969794" opacity="0.19680163810899765" transform="matrix(1.2412194723014005,0.147899363013615,-0.147899363013615,1.2412194723014005,394.1188840926644,259.75237635114894)" fill="none" stroke="#00a19d" filter="url(#bbburst-blur-3)"></use><use xlink:href="#bbburst-shape-9" width="35.697884900970195" opacity="0.5407441660084455" transform="matrix(0.9999999112339771,0.00042134550886063516,-0.00042134550886063516,0.9999999112339771,587.771125586598,22.116726052372712)" fill="none" stroke="#2c2891" filter="url(#bbburst-blur-2)"></use><use xlink:href="#bbburst-shape-13" width="32.72924523553456" opacity="0.08968749128376319" transform="matrix(1.5534619124723457,-0.8057642871819042,0.8057642871819042,1.5534619124723457,256.1236473598657,-563.5157349914564)" fill="none" stroke="#ffbd9b" filter="url(#bbburst-blur-4)"></use><use xlink:href="#bbburst-shape-10" width="36.821915922333716" opacity="0.5728051025833553" transform="matrix(0.9141862717837097,-0.4052942887362235,0.4052942887362235,0.9141862717837097,375.246542326047,156.58780357310712)" fill="none" stroke="#00a19d" filter="url(#bbburst-blur-1)"></use><use xlink:href="#bbburst-shape-10" width="55.781066667999454" opacity="0.1016878025601794" transform="matrix(1.3988966346088316,1.0514695457691985,-1.0514695457691985,1.3988966346088316,1006.8892440437675,146.73773656656215)" fill="none" stroke="#ff5c58" filter="url(#bbburst-blur-4)"></use><use xlink:href="#bbburst-shape-13" width="24.374109768523883" opacity="0.8410106433113691" transform="matrix(0.9457782034989842,0.32481316135008126,-0.32481316135008126,0.9457782034989842,549.978008362187,81.92899355767105)" fill="none" stroke="#2c2891"></use><use xlink:href="#bbburst-shape-9" width="48.705717205760486" opacity="0.4133332190238256" transform="matrix(0.7832123447287346,-0.621754310853184,0.621754310853184,0.7832123447287346,-16.990450075542327,319.5253205688144)" fill="none" stroke="#2c2891" filter="url(#bbburst-blur-2)"></use><use xlink:href="#bbburst-shape-10" width="42.71981867846635" opacity="0.4372512574824696" transform="matrix(0.9120926689144693,-0.40998410129233087,0.40998410129233087,0.9120926689144693,-35.18491466726891,71.69587317825409)" fill="none" stroke="#2c2891" filter="url(#bbburst-blur-2)"></use><use xlink:href="#bbburst-shape-9" width="44.66995609355756" opacity="0.12954768658455473" transform="matrix(1.249257910808455,-0.04306590626579582,0.04306590626579582,1.249257910808455,691.9367355122249,100.40680786497154)" fill="none" stroke="#00a19d" filter="url(#bbburst-blur-3)"></use><use xlink:href="#bbburst-shape-10" width="29.31915595088886" opacity="0.1367623532293727" transform="matrix(1.216561508003595,-0.2871900019917453,0.2871900019917453,1.216561508003595,623.771225366957,-236.7508725811271)" fill="none" stroke="#ffa6d5" filter="url(#bbburst-blur-3)"></use><use xlink:href="#bbburst-shape-13" width="26.04007370709633" opacity="0.7120034700132756" transform="matrix(0.9910893394866049,0.13319880313278015,-0.13319880313278015,0.9910893394866049,364.73128184872934,-103.40168485001607)" fill="none" stroke="#ffbd9b" filter="url(#bbburst-blur-1)"></use><use xlink:href="#bbburst-shape-10" width="61.31675870454386" opacity="0.1421642498258895" transform="matrix(1.2476691341217032,-0.07630027365612227,0.07630027365612227,1.2476691341217032,139.22210765648433,238.15924761407769)" fill="none" stroke="#2c2891" filter="url(#bbburst-blur-3)"></use><use xlink:href="#bbburst-shape-10" width="47.822555826355604" opacity="-0.05787972130358199" transform="matrix(1.7293244503425926,-0.26821063634257697,0.26821063634257697,1.7293244503425926,595.3005789362082,-614.4490607512552)" fill="none" stroke="#ffa6d5" filter="url(#bbburst-blur-4)"></use><use xlink:href="#bbburst-shape-10" width="38.24811936472584" opacity="0.3136721841559318" transform="matrix(1.1739173189177263,-0.4294393185829831,0.4294393185829831,1.1739173189177263,512.0873296222793,-100.83933826485713)" fill="none" stroke="#ff5c58" filter="url(#bbburst-blur-3)"></use><use xlink:href="#bbburst-shape-10" width="46.2990417307789" opacity="0.19054435437437212" transform="matrix(1.1558459608198393,0.47594129349790915,-0.47594129349790915,1.1558459608198393,827.9801111483272,-323.94564284839197)" fill="none" stroke="#00a19d" filter="url(#bbburst-blur-3)"></use><use xlink:href="#bbburst-shape-13" width="35.03626432055595" opacity="0.11245665722210241" transform="matrix(1.0031199321247484,-0.7458219638586948,0.7458219638586948,1.0031199321247484,-266.8254258454573,202.5225392796695)" fill="none" stroke="#ffa6d5" filter="url(#bbburst-blur-3)"></use><use xlink:href="#bbburst-shape-10" width="26.36450325374238" opacity="0.8600938683010855" transform="matrix(0.985150236431473,-0.17169453007889574,0.17169453007889574,0.985150236431473,268.113635306972,-29.76287252604834)" fill="none" stroke="#2c2891"></use><use xlink:href="#bbburst-shape-9" width="39.74193405698981" opacity="0.4297483072282908" transform="matrix(0.919504572458565,0.3930793065372326,-0.3930793065372326,0.919504572458565,551.9958321594904,-232.14629523980796)" fill="none" stroke="#00a19d" filter="url(#bbburst-blur-2)"></use><use xlink:href="#bbburst-shape-9" width="36.94209576581954" opacity="0.5402625712262208" transform="matrix(0.9916547178780746,0.12892214902861482,-0.12892214902861482,0.9916547178780746,347.53341120027244,-187.5636877293859)" fill="none" stroke="#2c2891" filter="url(#bbburst-blur-2)"></use></svg>